<?xml version="1.0" encoding="utf-8"?>
<svg xmlns="http://www.w3.org/2000/svg" viewBox="226.021 218.211 44.069 44.725" xmlns:bx="https://boxy-svg.com" width="16px" height="16.238171957612px"><defs><bx:export><bx:file format="svg" width="16" height="16.238171957612"/></bx:export></defs><path fill-rule="evenodd" clip-rule="evenodd" d="M 236.136 223.868 C 234.705 224.868 233.411 226.051 232.288 227.382 C 236.878 226.956 242.708 227.652 249.477 231.037 C 256.706 234.651 262.527 234.773 266.578 233.992 C 266.21 232.879 265.747 231.809 265.199 230.792 C 260.562 231.281 254.617 230.634 247.689 227.17 C 243.289 224.97 239.411 224.064 236.136 223.868 Z M 262.49 226.937 C 258.828 222.845 253.506 220.27 247.583 220.27 C 245.844 220.27 244.156 220.492 242.547 220.909 C 244.726 221.504 247.041 222.374 249.477 223.592 C 254.55 226.129 258.929 226.945 262.49 226.937 Z M 267.444 237.898 C 262.55 238.864 255.792 238.666 247.689 234.614 C 240.113 230.827 234.083 230.874 230.017 231.778 C 229.807 231.825 229.602 231.874 229.402 231.925 C 228.87 233.082 228.445 234.3 228.14 235.564 C 228.465 235.477 228.802 235.395 229.149 235.318 C 234.083 234.221 241.053 234.269 249.477 238.481 C 257.053 242.269 263.083 242.221 267.149 241.317 C 267.289 241.287 267.426 241.255 267.561 241.222 C 267.576 240.906 267.583 240.589 267.583 240.27 C 267.583 239.467 267.536 238.676 267.444 237.898 Z M 266.908 245.442 C 262.061 246.29 255.5 245.964 247.689 242.059 C 240.113 238.271 234.083 238.319 230.017 239.222 C 229.114 239.423 228.302 239.667 227.586 239.925 C 227.584 240.04 227.583 240.155 227.583 240.27 C 227.583 251.316 236.537 260.27 247.583 260.27 C 256.84 260.27 264.628 253.981 266.908 245.442 Z" class="ccustom" fill="#2563eb"/></svg>